STARTFONT 2.1
FONT -HP-HP User-Bold-R-Normal-Serif-11-110-72-72-M-60-HP-Roman8
SIZE 11 72 72
FONTBOUNDINGBOX 6 14 0 -3

STARTPROPERTIES 27
COPYRIGHT "(c) Copyright 1994, Hewlett Packard Company"
NOTICE "Created by the User Interaction Design Group, July 1994."
NOTICE "Hewlett Packard Company, 3000 Hanover St., Palo Alto, CA 94303, USA"
FONTNAME_REGISTRY ""
FOUNDRY "HP"
FAMILY_NAME "HP User"
WEIGHT_NAME "Bold"
SLANT "R"
ADD_STYLE_NAME "Serif"
SETWIDTH_NAME "Normal"
PIXEL_SIZE 11
POINT_SIZE 110
RESOLUTION_X 72
RESOLUTION_Y 72
SPACING "M"
AVERAGE_WIDTH 60
CHARSET_REGISTRY "HP"
CHARSET_ENCODING "Roman8"
CHARSET_COLLECTIONS "HP-Roman8"
FULL_NAME "HP User6x14B"
CAP_HEIGHT 9
X_HEIGHT 6
WEIGHT 10
QUAD_WIDTH 6
DEFAULT_CHAR 32
FONT_DESCENT 3
FONT_ASCENT 11
ENDPROPERTIES

CHARS 222

STARTCHAR Null
ENCODING 0
SWIDTH 545 0
DWIDTH 6 0
BBX 6 14 0 -3
BITMAP
00
48
68
58
48
48
00
24
24
24
24
18
00
00
ENDCHAR

STARTCHAR StartOfHeading
ENCODING 1
SWIDTH 545 0
DWIDTH 6 0
BBX 6 14 0 -3
BITMAP
00
38
40
30
08
70
00
24
24
3C
24
24
00
00
ENDCHAR

STARTCHAR StartOfText
ENCODING 2
SWIDTH 545 0
DWIDTH 6 0
BBX 6 14 0 -3
BITMAP
00
38
40
30
08
70
00
44
28
10
28
44
00
00
ENDCHAR

STARTCHAR EndOfText
ENCODING 3
SWIDTH 545 0
DWIDTH 6 0
BBX 6 14 0 -3
BITMAP
00
78
40
70
40
78
00
44
28
10
28
44
00
00
ENDCHAR

STARTCHAR EndOfTransmit
ENCODING 4
SWIDTH 545 0
DWIDTH 6 0
BBX 6 14 0 -3
BITMAP
00
78
40
70
40
78
00
7C
10
10
10
10
00
00
ENDCHAR

STARTCHAR Enquiry
ENCODING 5
SWIDTH 545 0
DWIDTH 6 0
BBX 6 14 0 -3
BITMAP
00
78
40
70
40
78
00
38
44
44
54
38
08
00
ENDCHAR

STARTCHAR Acknowledge
ENCODING 6
SWIDTH 545 0
DWIDTH 6 0
BBX 6 14 0 -3
BITMAP
00
30
48
78
48
48
00
24
28
30
28
24
00
00
ENDCHAR

STARTCHAR Bell
ENCODING 7
SWIDTH 545 0
DWIDTH 6 0
BBX 6 14 0 -3
BITMAP
00
00
30
48
48
48
48
48
84
FC
10
18
00
00
ENDCHAR

STARTCHAR BackSpace
ENCODING 8
SWIDTH 545 0
DWIDTH 6 0
BBX 6 14 0 -3
BITMAP
00
00
78
24
38
24
78
00
1C
20
18
04
38
00
ENDCHAR

STARTCHAR HorizontalTab
ENCODING 9
SWIDTH 545 0
DWIDTH 6 0
BBX 6 14 0 -3
BITMAP
00
00
48
48
78
48
48
00
7C
10
10
10
10
00
ENDCHAR

STARTCHAR LineFeed
ENCODING 10
SWIDTH 545 0
DWIDTH 6 0
BBX 6 14 0 -3
BITMAP
00
00
40
40
40
40
78
00
3C
20
38
20
20
00
ENDCHAR

STARTCHAR VerticalTab
ENCODING 11
SWIDTH 545 0
DWIDTH 6 0
BBX 6 14 0 -3
BITMAP
00
44
44
28
28
10
10
00
7C
10
10
10
10
00
ENDCHAR

STARTCHAR FormFeed
ENCODING 12
SWIDTH 545 0
DWIDTH 6 0
BBX 6 14 0 -3
BITMAP
00
00
78
40
70
40
40
00
3C
20
38
20
20
00
ENDCHAR

STARTCHAR CarriageReturn
ENCODING 13
SWIDTH 545 0
DWIDTH 6 0
BBX 6 14 0 -3
BITMAP
00
30
48
40
40
48
30
00
38
24
38
28
24
00
ENDCHAR

STARTCHAR ShiftOut
ENCODING 14
SWIDTH 545 0
DWIDTH 6 0
BBX 6 14 0 -3
BITMAP
00
00
38
40
30
08
70
00
18
24
24
24
18
00
ENDCHAR

STARTCHAR ShiftIn
ENCODING 15
SWIDTH 545 0
DWIDTH 6 0
BBX 6 14 0 -3
BITMAP
00
00
38
40
30
08
70
00
1C
08
08
08
1C
00
ENDCHAR

STARTCHAR DataLinkEscape
ENCODING 16
SWIDTH 545 0
DWIDTH 6 0
BBX 6 14 0 -3
BITMAP
00
78
24
24
24
24
78
00
20
20
20
20
3C
00
ENDCHAR

STARTCHAR DevCtrl1orXon
ENCODING 17
SWIDTH 545 0
DWIDTH 6 0
BBX 6 14 0 -3
BITMAP
00
78
24
24
24
24
78
00
08
18
08
08
1C
00
ENDCHAR

STARTCHAR DeviceControl2
ENCODING 18
SWIDTH 545 0
DWIDTH 6 0
BBX 6 14 0 -3
BITMAP
00
78
24
24
24
24
78
00
18
24
08
10
20
3C
ENDCHAR

STARTCHAR DevCtrl3orXoff
ENCODING 19
SWIDTH 545 0
DWIDTH 6 0
BBX 6 14 0 -3
BITMAP
00
78
24
24
24
24
78
00
38
04
18
04
38
00
ENDCHAR

STARTCHAR DeviceControl4
ENCODING 20
SWIDTH 545 0
DWIDTH 6 0
BBX 6 14 0 -3
BITMAP
00
78
24
24
24
24
78
00
08
18
28
7C
08
08
ENDCHAR

STARTCHAR NegAcknowledge
ENCODING 21
SWIDTH 545 0
DWIDTH 6 0
BBX 6 14 0 -3
BITMAP
00
48
68
58
48
48
00
24
28
30
28
24
00
00
ENDCHAR

STARTCHAR SynchronusIdle
ENCODING 22
SWIDTH 545 0
DWIDTH 6 0
BBX 6 14 0 -3
BITMAP
00
38
40
30
08
70
00
44
28
10
10
10
00
00
ENDCHAR

STARTCHAR EndTransmit
ENCODING 23
SWIDTH 545 0
DWIDTH 6 0
BBX 6 14 0 -3
BITMAP
00
78
40
70
40
78
00
78
24
38
24
78
00
00
ENDCHAR

STARTCHAR Cancel
ENCODING 24
SWIDTH 545 0
DWIDTH 6 0
BBX 6 14 0 -3
BITMAP
00
30
48
40
48
30
00
24
34
2C
24
24
00
00
ENDCHAR

STARTCHAR EndOfMedium
ENCODING 25
SWIDTH 545 0
DWIDTH 6 0
BBX 6 14 0 -3
BITMAP
00
00
78
40
70
40
78
00
44
6C
54
44
44
00
ENDCHAR

STARTCHAR Substitute
ENCODING 26
SWIDTH 545 0
DWIDTH 6 0
BBX 6 14 0 -3
BITMAP
00
38
40
30
08
70
00
78
24
38
24
78
00
00
ENDCHAR

STARTCHAR Escape
ENCODING 27
SWIDTH 545 0
DWIDTH 6 0
BBX 6 14 0 -3
BITMAP
00
78
40
70
40
78
00
38
44
40
44
38
00
00
ENDCHAR

STARTCHAR FileSeparator
ENCODING 28
SWIDTH 545 0
DWIDTH 6 0
BBX 6 14 0 -3
BITMAP
78
40
70
40
40
40
00
18
24
20
18
04
24
18
ENDCHAR

STARTCHAR GroupSeparator
ENCODING 29
SWIDTH 545 0
DWIDTH 6 0
BBX 6 14 0 -3
BITMAP
38
48
40
58
48
38
00
18
24
20
18
04
24
18
ENDCHAR

STARTCHAR RecordSeparatr
ENCODING 30
SWIDTH 545 0
DWIDTH 6 0
BBX 6 14 0 -3
BITMAP
70
48
48
70
48
48
00
18
24
20
18
04
24
18
ENDCHAR

STARTCHAR UnitSeparator
ENCODING 31
SWIDTH 545 0
DWIDTH 6 0
BBX 6 14 0 -3
BITMAP
00
48
48
48
48
30
00
18
24
20
18
04
24
18
ENDCHAR

STARTCHAR PrintableSpace
ENCODING 32
SWIDTH 545 0
DWIDTH 6 0
BBX 6 14 0 -3
BITMAP
00
00
00
00
00
00
00
00
00
00
00
00
00
00
ENDCHAR

STARTCHAR Exclamation
ENCODING 33
SWIDTH 545 0
DWIDTH 6 0
BBX 6 14 0 -3
BITMAP
00
30
30
30
30
30
30
30
00
00
30
30
00
00
ENDCHAR

STARTCHAR NeutrlDblQuote
ENCODING 34
SWIDTH 545 0
DWIDTH 6 0
BBX 6 14 0 -3
BITMAP
00
28
28
28
28
00
00
00
00
00
00
00
00
00
ENDCHAR

STARTCHAR NumberSign
ENCODING 35
SWIDTH 545 0
DWIDTH 6 0
BBX 6 14 0 -3
BITMAP
00
28
28
28
7C
28
28
28
7C
28
28
28
00
00
ENDCHAR

STARTCHAR DollarSign
ENCODING 36
SWIDTH 545 0
DWIDTH 6 0
BBX 6 14 0 -3
BITMAP
10
10
3C
44
60
70
38
1C
0C
44
78
10
10
00
ENDCHAR

STARTCHAR PerCentSign
ENCODING 37
SWIDTH 545 0
DWIDTH 6 0
BBX 6 14 0 -3
BITMAP
00
64
D4
D8
68
10
10
20
58
6C
AC
98
00
00
ENDCHAR

STARTCHAR Ampersand
ENCODING 38
SWIDTH 545 0
DWIDTH 6 0
BBX 6 14 0 -3
BITMAP
00
30
68
68
68
28
30
34
78
68
68
34
00
00
ENDCHAR

STARTCHAR SingleCloseQut
ENCODING 39
SWIDTH 545 0
DWIDTH 6 0
BBX 6 14 0 -3
BITMAP
00
30
30
10
20
40
00
00
00
00
00
00
00
00
ENDCHAR

STARTCHAR OpenParen
ENCODING 40
SWIDTH 545 0
DWIDTH 6 0
BBX 6 14 0 -3
BITMAP
04
0C
18
18
38
38
38
38
38
18
18
0C
04
00
ENDCHAR

STARTCHAR CloseParen
ENCODING 41
SWIDTH 545 0
DWIDTH 6 0
BBX 6 14 0 -3
BITMAP
40
60
30
30
38
38
38
38
38
30
30
60
40
00
ENDCHAR

STARTCHAR Asterisk
ENCODING 42
SWIDTH 545 0
DWIDTH 6 0
BBX 6 14 0 -3
BITMAP
00
00
00
10
54
7C
38
7C
54
10
00
00
00
00
ENDCHAR

STARTCHAR PlusSign
ENCODING 43
SWIDTH 545 0
DWIDTH 6 0
BBX 6 14 0 -3
BITMAP
00
00
00
00
10
10
7C
10
10
00
00
00
00
00
ENDCHAR

STARTCHAR Comma
ENCODING 44
SWIDTH 545 0
DWIDTH 6 0
BBX 6 14 0 -3
BITMAP
00
00
00
00
00
00
00
00
00
30
30
10
20
40
ENDCHAR

STARTCHAR Hyphen
ENCODING 45
SWIDTH 545 0
DWIDTH 6 0
BBX 6 14 0 -3
BITMAP
00
00
00
00
00
00
7C
00
00
00
00
00
00
00
ENDCHAR

STARTCHAR Period
ENCODING 46
SWIDTH 545 0
DWIDTH 6 0
BBX 6 14 0 -3
BITMAP
00
00
00
00
00
00
00
00
00
30
30
00
00
00
ENDCHAR

STARTCHAR Slash
ENCODING 47
SWIDTH 545 0
DWIDTH 6 0
BBX 6 14 0 -3
BITMAP
00
00
04
0C
08
18
10
30
20
60
40
C0
80
00
ENDCHAR

STARTCHAR Zero
ENCODING 48
SWIDTH 545 0
DWIDTH 6 0
BBX 6 14 0 -3
BITMAP
00
00
38
6C
44
44
54
44
44
6C
38
00
00
00
ENDCHAR

STARTCHAR One
ENCODING 49
SWIDTH 545 0
DWIDTH 6 0
BBX 6 14 0 -3
BITMAP
00
00
18
38
58
18
18
18
18
18
18
00
00
00
ENDCHAR

STARTCHAR Two
ENCODING 50
SWIDTH 545 0
DWIDTH 6 0
BBX 6 14 0 -3
BITMAP
00
00
38
4C
4C
0C
18
10
20
64
7C
00
00
00
ENDCHAR

STARTCHAR Three
ENCODING 51
SWIDTH 545 0
DWIDTH 6 0
BBX 6 14 0 -3
BITMAP
00
00
38
4C
0C
18
38
0C
0C
4C
38
00
00
00
ENDCHAR

STARTCHAR Four
ENCODING 52
SWIDTH 545 0
DWIDTH 6 0
BBX 6 14 0 -3
BITMAP
00
00
10
10
20
28
58
58
7C
18
18
00
00
00
ENDCHAR

STARTCHAR Five
ENCODING 53
SWIDTH 545 0
DWIDTH 6 0
BBX 6 14 0 -3
BITMAP
00
00
3C
30
30
38
0C
0C
0C
4C
38
00
00
00
ENDCHAR

STARTCHAR Six
ENCODING 54
SWIDTH 545 0
DWIDTH 6 0
BBX 6 14 0 -3
BITMAP
00
00
18
20
60
60
78
64
64
64
38
00
00
00
ENDCHAR

STARTCHAR Seven
ENCODING 55
SWIDTH 545 0
DWIDTH 6 0
BBX 6 14 0 -3
BITMAP
00
00
7C
7C
08
08
10
10
20
20
20
00
00
00
ENDCHAR

STARTCHAR Eight
ENCODING 56
SWIDTH 545 0
DWIDTH 6 0
BBX 6 14 0 -3
BITMAP
00
00
38
6C
64
6C
38
6C
4C
6C
38
00
00
00
ENDCHAR

STARTCHAR Nine
ENCODING 57
SWIDTH 545 0
DWIDTH 6 0
BBX 6 14 0 -3
BITMAP
00
00
38
4C
4C
4C
3C
0C
0C
18
30
00
00
00
ENDCHAR

STARTCHAR Colon
ENCODING 58
SWIDTH 545 0
DWIDTH 6 0
BBX 6 14 0 -3
BITMAP
00
00
00
00
00
30
30
00
00
30
30
00
00
00
ENDCHAR

STARTCHAR Simicolon
ENCODING 59
SWIDTH 545 0
DWIDTH 6 0
BBX 6 14 0 -3
BITMAP
00
00
00
00
00
30
30
00
00
30
30
10
20
40
ENDCHAR

STARTCHAR LessThanSign
ENCODING 60
SWIDTH 545 0
DWIDTH 6 0
BBX 6 14 0 -3
BITMAP
00
00
00
04
1C
38
70
38
1C
04
00
00
00
00
ENDCHAR

STARTCHAR EqualsSign
ENCODING 61
SWIDTH 545 0
DWIDTH 6 0
BBX 6 14 0 -3
BITMAP
00
00
00
00
00
7C
00
7C
00
00
00
00
00
00
ENDCHAR

STARTCHAR GreatrThanSign
ENCODING 62
SWIDTH 545 0
DWIDTH 6 0
BBX 6 14 0 -3
BITMAP
00
00
00
40
70
38
1C
38
70
40
00
00
00
00
ENDCHAR

STARTCHAR QuestionMark
ENCODING 63
SWIDTH 545 0
DWIDTH 6 0
BBX 6 14 0 -3
BITMAP
00
00
38
7C
4C
0C
18
30
30
00
30
30
00
00
ENDCHAR

STARTCHAR CommerclAtSign
ENCODING 64
SWIDTH 545 0
DWIDTH 6 0
BBX 6 14 0 -3
BITMAP
00
00
18
24
4C
54
54
54
4C
40
24
18
00
00
ENDCHAR

STARTCHAR A
ENCODING 65
SWIDTH 545 0
DWIDTH 6 0
BBX 6 14 0 -3
BITMAP
00
00
10
10
38
38
4C
4C
7C
44
44
00
00
00
ENDCHAR

STARTCHAR B
ENCODING 66
SWIDTH 545 0
DWIDTH 6 0
BBX 6 14 0 -3
BITMAP
00
00
F8
64
64
64
78
64
64
64
F8
00
00
00
ENDCHAR

STARTCHAR C
ENCODING 67
SWIDTH 545 0
DWIDTH 6 0
BBX 6 14 0 -3
BITMAP
00
00
1C
34
60
60
60
60
60
34
18
00
00
00
ENDCHAR

STARTCHAR D
ENCODING 68
SWIDTH 545 0
DWIDTH 6 0
BBX 6 14 0 -3
BITMAP
00
00
F0
68
64
64
64
64
64
68
F0
00
00
00
ENDCHAR

STARTCHAR E
ENCODING 69
SWIDTH 545 0
DWIDTH 6 0
BBX 6 14 0 -3
BITMAP
00
00
7C
60
60
60
78
60
60
60
7C
00
00
00
ENDCHAR

STARTCHAR F
ENCODING 70
SWIDTH 545 0
DWIDTH 6 0
BBX 6 14 0 -3
BITMAP
00
00
7C
60
60
60
78
60
60
60
60
00
00
00
ENDCHAR

STARTCHAR G
ENCODING 71
SWIDTH 545 0
DWIDTH 6 0
BBX 6 14 0 -3
BITMAP
00
00
1C
34
60
60
60
6C
64
34
1C
00
00
00
ENDCHAR

STARTCHAR H
ENCODING 72
SWIDTH 545 0
DWIDTH 6 0
BBX 6 14 0 -3
BITMAP
00
00
64
64
64
64
7C
64
64
64
64
00
00
00
ENDCHAR

STARTCHAR I
ENCODING 73
SWIDTH 545 0
DWIDTH 6 0
BBX 6 14 0 -3
BITMAP
00
00
78
30
30
30
30
30
30
30
78
00
00
00
ENDCHAR

STARTCHAR J
ENCODING 74
SWIDTH 545 0
DWIDTH 6 0
BBX 6 14 0 -3
BITMAP
00
00
3C
18
18
18
18
18
58
58
30
00
00
00
ENDCHAR

STARTCHAR K
ENCODING 75
SWIDTH 545 0
DWIDTH 6 0
BBX 6 14 0 -3
BITMAP
00
00
64
68
68
70
70
68
68
64
64
00
00
00
ENDCHAR

STARTCHAR L
ENCODING 76
SWIDTH 545 0
DWIDTH 6 0
BBX 6 14 0 -3
BITMAP
00
00
60
60
60
60
60
60
60
60
7C
00
00
00
ENDCHAR

STARTCHAR M
ENCODING 77
SWIDTH 545 0
DWIDTH 6 0
BBX 6 14 0 -3
BITMAP
00
00
44
6C
7C
7C
54
54
44
44
44
00
00
00
ENDCHAR

STARTCHAR N
ENCODING 78
SWIDTH 545 0
DWIDTH 6 0
BBX 6 14 0 -3
BITMAP
00
00
44
64
64
74
54
5C
4C
4C
44
00
00
00
ENDCHAR

STARTCHAR O
ENCODING 79
SWIDTH 545 0
DWIDTH 6 0
BBX 6 14 0 -3
BITMAP
00
00
38
64
64
64
64
64
64
64
38
00
00
00
ENDCHAR

STARTCHAR P
ENCODING 80
SWIDTH 545 0
DWIDTH 6 0
BBX 6 14 0 -3
BITMAP
00
00
78
64
64
64
78
60
60
60
60
00
00
00
ENDCHAR

STARTCHAR Q
ENCODING 81
SWIDTH 545 0
DWIDTH 6 0
BBX 6 14 0 -3
BITMAP
00
00
38
64
64
64
64
64
64
74
38
08
04
00
ENDCHAR

STARTCHAR R
ENCODING 82
SWIDTH 545 0
DWIDTH 6 0
BBX 6 14 0 -3
BITMAP
00
00
78
64
64
6C
78
68
6C
64
64
00
00
00
ENDCHAR

STARTCHAR S
ENCODING 83
SWIDTH 545 0
DWIDTH 6 0
BBX 6 14 0 -3
BITMAP
00
00
3C
64
60
70
38
1C
0C
4C
78
00
00
00
ENDCHAR

STARTCHAR T
ENCODING 84
SWIDTH 545 0
DWIDTH 6 0
BBX 6 14 0 -3
BITMAP
00
00
FC
30
30
30
30
30
30
30
30
00
00
00
ENDCHAR

STARTCHAR U
ENCODING 85
SWIDTH 545 0
DWIDTH 6 0
BBX 6 14 0 -3
BITMAP
00
00
64
64
64
64
64
64
64
64
38
00
00
00
ENDCHAR

STARTCHAR V
ENCODING 86
SWIDTH 545 0
DWIDTH 6 0
BBX 6 14 0 -3
BITMAP
00
00
C4
C4
C4
68
68
68
30
30
30
00
00
00
ENDCHAR

STARTCHAR W
ENCODING 87
SWIDTH 545 0
DWIDTH 6 0
BBX 6 14 0 -3
BITMAP
00
00
44
44
44
54
54
7C
38
28
28
00
00
00
ENDCHAR

STARTCHAR X
ENCODING 88
SWIDTH 545 0
DWIDTH 6 0
BBX 6 14 0 -3
BITMAP
00
00
44
64
28
30
18
28
2C
44
44
00
00
00
ENDCHAR

STARTCHAR Y
ENCODING 89
SWIDTH 545 0
DWIDTH 6 0
BBX 6 14 0 -3
BITMAP
00
00
C4
C4
68
68
30
30
30
30
78
00
00
00
ENDCHAR

STARTCHAR Z
ENCODING 90
SWIDTH 545 0
DWIDTH 6 0
BBX 6 14 0 -3
BITMAP
00
00
7C
44
0C
08
18
30
20
64
7C
00
00
00
ENDCHAR

STARTCHAR OpenBracket
ENCODING 91
SWIDTH 545 0
DWIDTH 6 0
BBX 6 14 0 -3
BITMAP
00
3C
30
30
30
30
30
30
30
30
30
3C
00
00
ENDCHAR

STARTCHAR BackSlash
ENCODING 92
SWIDTH 545 0
DWIDTH 6 0
BBX 6 14 0 -3
BITMAP
00
00
80
C0
40
60
20
30
10
18
08
0C
04
00
ENDCHAR

STARTCHAR CloseBracket
ENCODING 93
SWIDTH 545 0
DWIDTH 6 0
BBX 6 14 0 -3
BITMAP
00
78
18
18
18
18
18
18
18
18
18
78
00
00
ENDCHAR

STARTCHAR Circumflex
ENCODING 94
SWIDTH 545 0
DWIDTH 6 0
BBX 6 14 0 -3
BITMAP
00
00
10
38
6C
00
00
00
00
00
00
00
00
00
ENDCHAR

STARTCHAR Underscore
ENCODING 95
SWIDTH 545 0
DWIDTH 6 0
BBX 6 14 0 -3
BITMAP
00
00
00
00
00
00
00
00
00
00
00
FC
00
00
ENDCHAR

STARTCHAR SingleOpenQuot
ENCODING 96
SWIDTH 545 0
DWIDTH 6 0
BBX 6 14 0 -3
BITMAP
00
08
10
20
30
30
00
00
00
00
00
00
00
00
ENDCHAR

STARTCHAR a
ENCODING 97
SWIDTH 545 0
DWIDTH 6 0
BBX 6 14 0 -3
BITMAP
00
00
00
00
00
38
0C
3C
4C
4C
34
00
00
00
ENDCHAR

STARTCHAR b
ENCODING 98
SWIDTH 545 0
DWIDTH 6 0
BBX 6 14 0 -3
BITMAP
00
00
60
60
60
78
64
64
64
64
58
00
00
00
ENDCHAR

STARTCHAR c
ENCODING 99
SWIDTH 545 0
DWIDTH 6 0
BBX 6 14 0 -3
BITMAP
00
00
00
00
00
3C
64
60
60
64
38
00
00
00
ENDCHAR

STARTCHAR d
ENCODING 100
SWIDTH 545 0
DWIDTH 6 0
BBX 6 14 0 -3
BITMAP
00
00
0C
0C
0C
3C
4C
4C
4C
4C
34
00
00
00
ENDCHAR

STARTCHAR e
ENCODING 101
SWIDTH 545 0
DWIDTH 6 0
BBX 6 14 0 -3
BITMAP
00
00
00
00
00
38
64
7C
60
64
38
00
00
00
ENDCHAR

STARTCHAR f
ENCODING 102
SWIDTH 545 0
DWIDTH 6 0
BBX 6 14 0 -3
BITMAP
00
00
1C
30
30
7C
30
30
30
30
7C
00
00
00
ENDCHAR

STARTCHAR g
ENCODING 103
SWIDTH 545 0
DWIDTH 6 0
BBX 6 14 0 -3
BITMAP
00
00
00
00
00
34
68
68
30
60
38
64
64
38
ENDCHAR

STARTCHAR h
ENCODING 104
SWIDTH 545 0
DWIDTH 6 0
BBX 6 14 0 -3
BITMAP
00
00
60
60
60
78
64
64
64
64
64
00
00
00
ENDCHAR

STARTCHAR i
ENCODING 105
SWIDTH 545 0
DWIDTH 6 0
BBX 6 14 0 -3
BITMAP
00
00
30
30
00
70
30
30
30
30
78
00
00
00
ENDCHAR

STARTCHAR j
ENCODING 106
SWIDTH 545 0
DWIDTH 6 0
BBX 6 14 0 -3
BITMAP
00
00
18
18
00
38
18
18
18
18
18
18
58
30
ENDCHAR

STARTCHAR k
ENCODING 107
SWIDTH 545 0
DWIDTH 6 0
BBX 6 14 0 -3
BITMAP
00
00
60
60
60
6C
68
70
70
68
6C
00
00
00
ENDCHAR

STARTCHAR l
ENCODING 108
SWIDTH 545 0
DWIDTH 6 0
BBX 6 14 0 -3
BITMAP
00
00
70
30
30
30
30
30
30
30
78
00
00
00
ENDCHAR

STARTCHAR m
ENCODING 109
SWIDTH 545 0
DWIDTH 6 0
BBX 6 14 0 -3
BITMAP
00
00
00
00
00
68
7C
54
54
54
44
00
00
00
ENDCHAR

STARTCHAR n
ENCODING 110
SWIDTH 545 0
DWIDTH 6 0
BBX 6 14 0 -3
BITMAP
00
00
00
00
00
58
64
64
64
64
64
00
00
00
ENDCHAR

STARTCHAR o
ENCODING 111
SWIDTH 545 0
DWIDTH 6 0
BBX 6 14 0 -3
BITMAP
00
00
00
00
00
38
64
64
64
64
38
00
00
00
ENDCHAR

STARTCHAR p
ENCODING 112
SWIDTH 545 0
DWIDTH 6 0
BBX 6 14 0 -3
BITMAP
00
00
00
00
00
78
64
64
64
64
78
60
60
60
ENDCHAR

STARTCHAR q
ENCODING 113
SWIDTH 545 0
DWIDTH 6 0
BBX 6 14 0 -3
BITMAP
00
00
00
00
00
34
4C
4C
4C
4C
3C
0C
0C
0C
ENDCHAR

STARTCHAR r
ENCODING 114
SWIDTH 545 0
DWIDTH 6 0
BBX 6 14 0 -3
BITMAP
00
00
00
00
00
2C
34
30
30
30
30
00
00
00
ENDCHAR

STARTCHAR s
ENCODING 115
SWIDTH 545 0
DWIDTH 6 0
BBX 6 14 0 -3
BITMAP
00
00
00
00
00
3C
60
38
1C
4C
78
00
00
00
ENDCHAR

STARTCHAR t
ENCODING 116
SWIDTH 545 0
DWIDTH 6 0
BBX 6 14 0 -3
BITMAP
00
00
00
30
30
78
30
30
30
34
18
00
00
00
ENDCHAR

STARTCHAR u
ENCODING 117
SWIDTH 545 0
DWIDTH 6 0
BBX 6 14 0 -3
BITMAP
00
00
00
00
00
64
64
64
64
6C
34
00
00
00
ENDCHAR

STARTCHAR v
ENCODING 118
SWIDTH 545 0
DWIDTH 6 0
BBX 6 14 0 -3
BITMAP
00
00
00
00
00
C4
C4
68
68
30
30
00
00
00
ENDCHAR

STARTCHAR w
ENCODING 119
SWIDTH 545 0
DWIDTH 6 0
BBX 6 14 0 -3
BITMAP
00
00
00
00
00
44
44
54
7C
38
28
00
00
00
ENDCHAR

STARTCHAR x
ENCODING 120
SWIDTH 545 0
DWIDTH 6 0
BBX 6 14 0 -3
BITMAP
00
00
00
00
00
EC
68
30
30
58
DC
00
00
00
ENDCHAR

STARTCHAR y
ENCODING 121
SWIDTH 545 0
DWIDTH 6 0
BBX 6 14 0 -3
BITMAP
00
00
00
00
00
44
44
64
28
38
18
10
50
60
ENDCHAR

STARTCHAR z
ENCODING 122
SWIDTH 545 0
DWIDTH 6 0
BBX 6 14 0 -3
BITMAP
00
00
00
00
00
7C
0C
18
30
60
7C
00
00
00
ENDCHAR

STARTCHAR OpenBrace
ENCODING 123
SWIDTH 545 0
DWIDTH 6 0
BBX 6 14 0 -3
BITMAP
00
0C
18
18
18
10
60
10
18
18
18
0C
00
00
ENDCHAR

STARTCHAR LongVertMark
ENCODING 124
SWIDTH 545 0
DWIDTH 6 0
BBX 6 14 0 -3
BITMAP
00
18
18
18
18
18
18
18
18
18
18
18
00
00
ENDCHAR

STARTCHAR CloseBrace
ENCODING 125
SWIDTH 545 0
DWIDTH 6 0
BBX 6 14 0 -3
BITMAP
00
60
30
30
30
10
0C
10
30
30
30
60
00
00
ENDCHAR

STARTCHAR OneWavyLine
ENCODING 126
SWIDTH 545 0
DWIDTH 6 0
BBX 6 14 0 -3
BITMAP
00
00
00
00
20
74
B8
10
00
00
00
00
00
00
ENDCHAR

STARTCHAR MediumShading
ENCODING 127
SWIDTH 545 0
DWIDTH 6 0
BBX 6 14 0 -3
BITMAP
CC
CC
30
30
CC
CC
30
30
CC
CC
30
30
CC
CC
ENDCHAR

STARTCHAR Agrave
ENCODING 161
SWIDTH 545 0
DWIDTH 6 0
BBX 6 14 0 -3
BITMAP
60
30
00
10
10
38
28
4C
7C
44
44
00
00
00
ENDCHAR

STARTCHAR Acircumflex
ENCODING 162
SWIDTH 545 0
DWIDTH 6 0
BBX 6 14 0 -3
BITMAP
10
38
44
10
10
38
28
4C
7C
44
44
00
00
00
ENDCHAR

STARTCHAR Egrave
ENCODING 163
SWIDTH 545 0
DWIDTH 6 0
BBX 6 14 0 -3
BITMAP
60
30
00
7C
60
60
78
60
60
60
7C
00
00
00
ENDCHAR

STARTCHAR Ecircumflex
ENCODING 164
SWIDTH 545 0
DWIDTH 6 0
BBX 6 14 0 -3
BITMAP
30
48
00
7C
60
60
78
60
60
60
7C
00
00
00
ENDCHAR

STARTCHAR Ediaeresis
ENCODING 165
SWIDTH 545 0
DWIDTH 6 0
BBX 6 14 0 -3
BITMAP
48
48
00
7C
60
60
78
60
60
60
7C
00
00
00
ENDCHAR

STARTCHAR Icircumflex
ENCODING 166
SWIDTH 545 0
DWIDTH 6 0
BBX 6 14 0 -3
BITMAP
30
48
00
78
30
30
30
30
30
30
78
00
00
00
ENDCHAR

STARTCHAR Idiaeresis
ENCODING 167
SWIDTH 545 0
DWIDTH 6 0
BBX 6 14 0 -3
BITMAP
28
28
00
78
30
30
30
30
30
30
78
00
00
00
ENDCHAR

STARTCHAR acuteAccent
ENCODING 168
SWIDTH 545 0
DWIDTH 6 0
BBX 6 14 0 -3
BITMAP
00
00
0C
18
20
00
00
00
00
00
00
00
00
00
ENDCHAR

STARTCHAR graveAccent
ENCODING 169
SWIDTH 545 0
DWIDTH 6 0
BBX 6 14 0 -3
BITMAP
00
00
60
30
08
00
00
00
00
00
00
00
00
00
ENDCHAR

STARTCHAR circumflexAcct
ENCODING 170
SWIDTH 545 0
DWIDTH 6 0
BBX 6 14 0 -3
BITMAP
00
00
10
38
44
00
00
00
00
00
00
00
00
00
ENDCHAR

STARTCHAR diaeresisAccnt
ENCODING 171
SWIDTH 545 0
DWIDTH 6 0
BBX 6 14 0 -3
BITMAP
00
00
48
48
00
00
00
00
00
00
00
00
00
00
ENDCHAR

STARTCHAR tildeAccent
ENCODING 172
SWIDTH 545 0
DWIDTH 6 0
BBX 6 14 0 -3
BITMAP
00
00
34
58
00
00
00
00
00
00
00
00
00
00
ENDCHAR

STARTCHAR Ugrave
ENCODING 173
SWIDTH 545 0
DWIDTH 6 0
BBX 6 14 0 -3
BITMAP
60
30
00
64
64
64
64
64
64
64
38
00
00
00
ENDCHAR

STARTCHAR Ucircumflex
ENCODING 174
SWIDTH 545 0
DWIDTH 6 0
BBX 6 14 0 -3
BITMAP
18
24
00
64
64
64
64
64
64
64
38
00
00
00
ENDCHAR

STARTCHAR ItalianLire
ENCODING 175
SWIDTH 545 0
DWIDTH 6 0
BBX 6 14 0 -3
BITMAP
00
00
18
34
30
78
30
78
30
34
58
00
00
00
ENDCHAR

STARTCHAR Overline
ENCODING 176
SWIDTH 545 0
DWIDTH 6 0
BBX 6 14 0 -3
BITMAP
FC
00
00
00
00
00
00
00
00
00
00
00
00
00
ENDCHAR

STARTCHAR Yacute
ENCODING 177
SWIDTH 545 0
DWIDTH 6 0
BBX 6 14 0 -3
BITMAP
18
30
C4
C4
68
68
30
30
30
30
78
00
00
00
ENDCHAR

STARTCHAR yacute
ENCODING 178
SWIDTH 545 0
DWIDTH 6 0
BBX 6 14 0 -3
BITMAP
00
0C
18
20
00
44
44
64
28
38
18
10
50
60
ENDCHAR

STARTCHAR DegreeSign
ENCODING 179
SWIDTH 545 0
DWIDTH 6 0
BBX 6 14 0 -3
BITMAP
00
00
30
48
48
30
00
00
00
00
00
00
00
00
ENDCHAR

STARTCHAR Ccedilla
ENCODING 180
SWIDTH 545 0
DWIDTH 6 0
BBX 6 14 0 -3
BITMAP
00
00
1C
34
60
60
60
60
60
34
18
08
04
38
ENDCHAR

STARTCHAR ccedilla
ENCODING 181
SWIDTH 545 0
DWIDTH 6 0
BBX 6 14 0 -3
BITMAP
00
00
00
00
00
3C
64
60
60
64
38
10
08
30
ENDCHAR

STARTCHAR Ntilde
ENCODING 182
SWIDTH 545 0
DWIDTH 6 0
BBX 6 14 0 -3
BITMAP
34
58
00
64
64
74
74
5C
5C
4C
4C
00
00
00
ENDCHAR

STARTCHAR ntilde
ENCODING 183
SWIDTH 545 0
DWIDTH 6 0
BBX 6 14 0 -3
BITMAP
00
00
34
58
00
58
64
64
64
64
64
00
00
00
ENDCHAR

STARTCHAR InvExclamation
ENCODING 184
SWIDTH 545 0
DWIDTH 6 0
BBX 6 14 0 -3
BITMAP
00
00
30
30
00
00
30
30
30
30
30
30
30
00
ENDCHAR

STARTCHAR InvertQuestion
ENCODING 185
SWIDTH 545 0
DWIDTH 6 0
BBX 6 14 0 -3
BITMAP
00
00
18
18
00
00
18
18
30
60
64
7C
38
00
ENDCHAR

STARTCHAR CurrencySymbol
ENCODING 186
SWIDTH 545 0
DWIDTH 6 0
BBX 6 14 0 -3
BITMAP
00
00
CC
FC
48
48
FC
CC
00
00
00
00
00
00
ENDCHAR

STARTCHAR SterlingSign
ENCODING 187
SWIDTH 545 0
DWIDTH 6 0
BBX 6 14 0 -3
BITMAP
00
00
18
34
30
30
78
30
30
34
58
00
00
00
ENDCHAR

STARTCHAR Yensign
ENCODING 188
SWIDTH 545 0
DWIDTH 6 0
BBX 6 14 0 -3
BITMAP
00
00
64
64
28
38
7C
10
7C
10
10
00
00
00
ENDCHAR

STARTCHAR SectionMark
ENCODING 189
SWIDTH 545 0
DWIDTH 6 0
BBX 6 14 0 -3
BITMAP
00
38
6C
70
38
5C
6C
74
38
1C
6C
38
00
00
ENDCHAR

STARTCHAR FlorinSign
ENCODING 190
SWIDTH 545 0
DWIDTH 6 0
BBX 6 14 0 -3
BITMAP
00
00
1C
34
30
30
78
30
30
30
30
30
60
00
ENDCHAR

STARTCHAR CentSign
ENCODING 191
SWIDTH 545 0
DWIDTH 6 0
BBX 6 14 0 -3
BITMAP
00
00
10
10
3C
64
60
64
38
10
10
00
00
00
ENDCHAR

STARTCHAR acircumflex
ENCODING 192
SWIDTH 545 0
DWIDTH 6 0
BBX 6 14 0 -3
BITMAP
00
10
38
44
00
38
0C
3C
4C
4C
34
00
00
00
ENDCHAR

STARTCHAR ecircumflex
ENCODING 193
SWIDTH 545 0
DWIDTH 6 0
BBX 6 14 0 -3
BITMAP
00
10
38
44
00
38
64
7C
60
64
38
00
00
00
ENDCHAR

STARTCHAR ocircumflex
ENCODING 194
SWIDTH 545 0
DWIDTH 6 0
BBX 6 14 0 -3
BITMAP
00
10
38
44
00
38
64
64
64
64
38
00
00
00
ENDCHAR

STARTCHAR ucircumflex
ENCODING 195
SWIDTH 545 0
DWIDTH 6 0
BBX 6 14 0 -3
BITMAP
00
10
38
44
00
64
64
64
64
6C
34
00
00
00
ENDCHAR

STARTCHAR aacute
ENCODING 196
SWIDTH 545 0
DWIDTH 6 0
BBX 6 14 0 -3
BITMAP
00
0C
18
20
00
38
0C
3C
4C
4C
34
00
00
00
ENDCHAR

STARTCHAR eacute
ENCODING 197
SWIDTH 545 0
DWIDTH 6 0
BBX 6 14 0 -3
BITMAP
00
0C
18
20
00
38
64
7C
60
64
38
00
00
00
ENDCHAR

STARTCHAR oacute
ENCODING 198
SWIDTH 545 0
DWIDTH 6 0
BBX 6 14 0 -3
BITMAP
00
0C
18
20
00
38
64
64
64
64
38
00
00
00
ENDCHAR

STARTCHAR uacute
ENCODING 199
SWIDTH 545 0
DWIDTH 6 0
BBX 6 14 0 -3
BITMAP
00
0C
18
20
00
64
64
64
64
6C
34
00
00
00
ENDCHAR

STARTCHAR agrave
ENCODING 200
SWIDTH 545 0
DWIDTH 6 0
BBX 6 14 0 -3
BITMAP
00
60
30
08
00
38
0C
3C
4C
4C
34
00
00
00
ENDCHAR

STARTCHAR egrave
ENCODING 201
SWIDTH 545 0
DWIDTH 6 0
BBX 6 14 0 -3
BITMAP
00
60
30
08
00
38
64
7C
60
64
38
00
00
00
ENDCHAR

STARTCHAR ograve
ENCODING 202
SWIDTH 545 0
DWIDTH 6 0
BBX 6 14 0 -3
BITMAP
00
60
30
08
00
38
64
64
64
64
38
00
00
00
ENDCHAR

STARTCHAR ugrave
ENCODING 203
SWIDTH 545 0
DWIDTH 6 0
BBX 6 14 0 -3
BITMAP
00
60
30
08
00
64
64
64
64
6C
34
00
00
00
ENDCHAR

STARTCHAR adiaeresis
ENCODING 204
SWIDTH 545 0
DWIDTH 6 0
BBX 6 14 0 -3
BITMAP
00
00
24
24
00
38
0C
3C
4C
4C
34
00
00
00
ENDCHAR

STARTCHAR ediaeresis
ENCODING 205
SWIDTH 545 0
DWIDTH 6 0
BBX 6 14 0 -3
BITMAP
00
00
24
24
00
38
64
7C
60
64
38
00
00
00
ENDCHAR

STARTCHAR odiaeresis
ENCODING 206
SWIDTH 545 0
DWIDTH 6 0
BBX 6 14 0 -3
BITMAP
00
00
24
24
00
38
64
64
64
64
38
00
00
00
ENDCHAR

STARTCHAR udiaeresis
ENCODING 207
SWIDTH 545 0
DWIDTH 6 0
BBX 6 14 0 -3
BITMAP
00
00
24
24
00
64
64
64
64
6C
34
00
00
00
ENDCHAR

STARTCHAR Abolle
ENCODING 208
SWIDTH 545 0
DWIDTH 6 0
BBX 6 14 0 -3
BITMAP
18
24
24
18
10
38
28
4C
7C
44
44
00
00
00
ENDCHAR

STARTCHAR icircumflex
ENCODING 209
SWIDTH 545 0
DWIDTH 6 0
BBX 6 14 0 -3
BITMAP
00
20
70
88
00
70
30
30
30
30
78
00
00
00
ENDCHAR

STARTCHAR Ooblique
ENCODING 210
SWIDTH 545 0
DWIDTH 6 0
BBX 6 14 0 -3
BITMAP
04
04
38
6C
4C
54
54
54
64
6C
38
40
40
00
ENDCHAR

STARTCHAR AEdiphthong
ENCODING 211
SWIDTH 545 0
DWIDTH 6 0
BBX 6 14 0 -3
BITMAP
00
00
7C
30
50
50
5C
70
90
90
9C
00
00
00
ENDCHAR

STARTCHAR abolle
ENCODING 212
SWIDTH 545 0
DWIDTH 6 0
BBX 6 14 0 -3
BITMAP
18
24
24
18
00
38
0C
3C
4C
4C
34
00
00
00
ENDCHAR

STARTCHAR iacute
ENCODING 213
SWIDTH 545 0
DWIDTH 6 0
BBX 6 14 0 -3
BITMAP
00
0C
18
20
00
70
30
30
30
30
78
00
00
00
ENDCHAR

STARTCHAR ooblique
ENCODING 214
SWIDTH 545 0
DWIDTH 6 0
BBX 6 14 0 -3
BITMAP
00
00
00
04
04
38
6C
54
54
6C
38
40
40
00
ENDCHAR

STARTCHAR aedihthong
ENCODING 215
SWIDTH 545 0
DWIDTH 6 0
BBX 6 14 0 -3
BITMAP
00
00
00
00
00
68
34
7C
B0
B0
6C
00
00
00
ENDCHAR

STARTCHAR Adiaeresis
ENCODING 216
SWIDTH 545 0
DWIDTH 6 0
BBX 6 14 0 -3
BITMAP
24
24
10
10
38
38
4C
4C
7C
44
44
00
00
00
ENDCHAR

STARTCHAR igrave
ENCODING 217
SWIDTH 545 0
DWIDTH 6 0
BBX 6 14 0 -3
BITMAP
00
C0
60
10
00
70
30
30
30
30
78
00
00
00
ENDCHAR

STARTCHAR Odiaeresis
ENCODING 218
SWIDTH 545 0
DWIDTH 6 0
BBX 6 14 0 -3
BITMAP
24
24
00
38
64
64
64
64
64
64
38
00
00
00
ENDCHAR

STARTCHAR Udiaeresis
ENCODING 219
SWIDTH 545 0
DWIDTH 6 0
BBX 6 14 0 -3
BITMAP
24
24
00
64
64
64
64
64
64
64
38
00
00
00
ENDCHAR

STARTCHAR Eacute
ENCODING 220
SWIDTH 545 0
DWIDTH 6 0
BBX 6 14 0 -3
BITMAP
0C
18
00
7C
60
60
78
60
60
60
7C
00
00
00
ENDCHAR

STARTCHAR idiaeresis
ENCODING 221
SWIDTH 545 0
DWIDTH 6 0
BBX 6 14 0 -3
BITMAP
00
00
50
50
00
70
30
30
30
30
78
00
00
00
ENDCHAR

STARTCHAR EsZetLigature
ENCODING 222
SWIDTH 545 0
DWIDTH 6 0
BBX 6 14 0 -3
BITMAP
00
30
78
48
48
58
4C
4C
4C
4C
58
40
C0
00
ENDCHAR

STARTCHAR Ocircumflex
ENCODING 223
SWIDTH 545 0
DWIDTH 6 0
BBX 6 14 0 -3
BITMAP
18
24
00
38
64
64
64
64
64
64
38
00
00
00
ENDCHAR

STARTCHAR Aacute
ENCODING 224
SWIDTH 545 0
DWIDTH 6 0
BBX 6 14 0 -3
BITMAP
0C
18
20
10
10
38
28
4C
7C
44
44
00
00
00
ENDCHAR

STARTCHAR Atilde
ENCODING 225
SWIDTH 545 0
DWIDTH 6 0
BBX 6 14 0 -3
BITMAP
34
58
00
10
10
38
28
4C
7C
44
44
00
00
00
ENDCHAR

STARTCHAR atilde
ENCODING 226
SWIDTH 545 0
DWIDTH 6 0
BBX 6 14 0 -3
BITMAP
00
00
34
58
00
38
0C
3C
4C
4C
34
00
00
00
ENDCHAR

STARTCHAR Eth
ENCODING 227
SWIDTH 545 0
DWIDTH 6 0
BBX 6 14 0 -3
BITMAP
00
00
F0
68
64
64
F4
64
64
68
F0
00
00
00
ENDCHAR

STARTCHAR ethIcelandic
ENCODING 228
SWIDTH 545 0
DWIDTH 6 0
BBX 6 14 0 -3
BITMAP
00
40
6C
38
78
18
3C
6C
4C
6C
38
00
00
00
ENDCHAR

STARTCHAR Iacute
ENCODING 229
SWIDTH 545 0
DWIDTH 6 0
BBX 6 14 0 -3
BITMAP
18
30
00
78
30
30
30
30
30
30
78
00
00
00
ENDCHAR

STARTCHAR Igrave
ENCODING 230
SWIDTH 545 0
DWIDTH 6 0
BBX 6 14 0 -3
BITMAP
60
30
00
78
30
30
30
30
30
30
78
00
00
00
ENDCHAR

STARTCHAR Oacute
ENCODING 231
SWIDTH 545 0
DWIDTH 6 0
BBX 6 14 0 -3
BITMAP
0C
18
00
38
64
64
64
64
64
64
38
00
00
00
ENDCHAR

STARTCHAR Ograve
ENCODING 232
SWIDTH 545 0
DWIDTH 6 0
BBX 6 14 0 -3
BITMAP
60
30
00
38
64
64
64
64
64
64
38
00
00
00
ENDCHAR

STARTCHAR Otilde
ENCODING 233
SWIDTH 545 0
DWIDTH 6 0
BBX 6 14 0 -3
BITMAP
34
58
00
38
64
64
64
64
64
64
38
00
00
00
ENDCHAR

STARTCHAR otilde
ENCODING 234
SWIDTH 545 0
DWIDTH 6 0
BBX 6 14 0 -3
BITMAP
00
00
34
58
00
38
64
64
64
64
38
00
00
00
ENDCHAR

STARTCHAR Shacek
ENCODING 235
SWIDTH 545 0
DWIDTH 6 0
BBX 6 14 0 -3
BITMAP
24
18
00
38
64
60
30
18
0C
4C
38
00
00
00
ENDCHAR

STARTCHAR shacek
ENCODING 236
SWIDTH 545 0
DWIDTH 6 0
BBX 6 14 0 -3
BITMAP
00
44
38
10
00
3C
60
38
1C
4C
78
00
00
00
ENDCHAR

STARTCHAR Uacute
ENCODING 237
SWIDTH 545 0
DWIDTH 6 0
BBX 6 14 0 -3
BITMAP
0C
18
00
64
64
64
64
64
64
64
38
00
00
00
ENDCHAR

STARTCHAR Ydiaeresis
ENCODING 238
SWIDTH 545 0
DWIDTH 6 0
BBX 6 14 0 -3
BITMAP
28
28
C4
C4
68
68
30
30
30
30
78
00
00
00
ENDCHAR

STARTCHAR ydiaeresis
ENCODING 239
SWIDTH 545 0
DWIDTH 6 0
BBX 6 14 0 -3
BITMAP
00
00
28
28
00
44
44
64
28
38
18
10
50
60
ENDCHAR

STARTCHAR Thorn
ENCODING 240
SWIDTH 545 0
DWIDTH 6 0
BBX 6 14 0 -3
BITMAP
00
00
F0
60
78
64
64
64
78
60
F0
00
00
00
ENDCHAR

STARTCHAR thorn
ENCODING 241
SWIDTH 545 0
DWIDTH 6 0
BBX 6 14 0 -3
BITMAP
00
00
E0
60
60
78
64
64
64
64
78
60
F0
00
ENDCHAR

STARTCHAR middleDot
ENCODING 242
SWIDTH 545 0
DWIDTH 6 0
BBX 6 14 0 -3
BITMAP
00
00
00
00
00
10
10
00
00
00
00
00
00
00
ENDCHAR

STARTCHAR muGreek
ENCODING 243
SWIDTH 545 0
DWIDTH 6 0
BBX 6 14 0 -3
BITMAP
00
00
00
00
00
24
24
6C
48
68
FC
80
80
00
ENDCHAR

STARTCHAR ParagraphSign
ENCODING 244
SWIDTH 545 0
DWIDTH 6 0
BBX 6 14 0 -3
BITMAP
00
00
6C
E8
E8
E8
68
28
28
28
28
28
00
00
ENDCHAR

STARTCHAR FracThreeFour
ENCODING 245
SWIDTH 545 0
DWIDTH 6 0
BBX 6 14 0 -3
BITMAP
60
30
60
30
B4
68
10
20
48
98
28
7C
08
00
ENDCHAR

STARTCHAR MinusSign
ENCODING 246
SWIDTH 545 0
DWIDTH 6 0
BBX 6 14 0 -3
BITMAP
00
00
00
00
00
00
7C
00
00
00
00
00
00
00
ENDCHAR

STARTCHAR FracOneFourth
ENCODING 247
SWIDTH 545 0
DWIDTH 6 0
BBX 6 14 0 -3
BITMAP
00
60
E0
60
64
68
10
20
48
98
28
7C
08
00
ENDCHAR

STARTCHAR FracOneHalf
ENCODING 248
SWIDTH 545 0
DWIDTH 6 0
BBX 6 14 0 -3
BITMAP
00
60
E0
60
64
68
10
20
58
AC
18
30
3C
00
ENDCHAR

STARTCHAR FemaleOrdinal
ENCODING 249
SWIDTH 545 0
DWIDTH 6 0
BBX 6 14 0 -3
BITMAP
00
30
18
38
68
34
00
7C
00
00
00
00
00
00
ENDCHAR

STARTCHAR MaleOrdinal
ENCODING 250
SWIDTH 545 0
DWIDTH 6 0
BBX 6 14 0 -3
BITMAP
00
38
6C
44
6C
38
00
7C
00
00
00
00
00
00
ENDCHAR

STARTCHAR DblOpenAnglQut
ENCODING 251
SWIDTH 545 0
DWIDTH 6 0
BBX 6 14 0 -3
BITMAP
00
00
00
00
24
6C
D8
6C
24
00
00
00
00
00
ENDCHAR

STARTCHAR MedSolidSquare
ENCODING 252
SWIDTH 545 0
DWIDTH 6 0
BBX 6 14 0 -3
BITMAP
00
00
00
00
7C
7C
7C
7C
7C
00
00
00
00
00
ENDCHAR

STARTCHAR DblClosAnglQut
ENCODING 253
SWIDTH 545 0
DWIDTH 6 0
BBX 6 14 0 -3
BITMAP
00
00
00
00
90
D8
6C
D8
90
00
00
00
00
00
ENDCHAR

STARTCHAR PlusOverMinus
ENCODING 254
SWIDTH 545 0
DWIDTH 6 0
BBX 6 14 0 -3
BITMAP
00
00
10
10
7C
10
10
00
7C
00
00
00
00
00
ENDCHAR
ENDFONT
